<?xml version="1.0" encoding="utf-8"?>
<!-- Generator: Adobe Illustrator 23.0.0, SVG Export Plug-In . SVG Version: 6.00 Build 0)  -->
<svg version="1.1" id="Layer_1" xmlns="http://www.w3.org/2000/svg" xmlns:xlink="http://www.w3.org/1999/xlink" x="0px" y="0px"
	 viewBox="0 0 409.6 409.6" style="enable-background:new 0 0 409.6 409.6;" xml:space="preserve">
<style type="text/css">
	.st0{fill:#F8EA96;}
	.st1{fill:#F2CB31;}
	.st2{fill:#F04D4C;}
	.st3{fill:#DA2227;}
</style>
<g>
	<path class="st0" d="M205.6,410.4c-0.53,0-1.07,0-1.6,0c-1.81-1.5-4.13-1.74-6.25-2.42c-37.74-12.08-70.67-32.11-98.81-59.95
		c-21.32-21.09-38.17-45.33-50.94-72.52c-14.36-30.58-22.24-62.78-22.91-96.39c-0.83-41.03-0.2-82.09-0.34-123.13
		c-0.01-3.29,1.13-4.04,4.14-4c16.82,0.26,33.51-1.47,50.05-4.21c39.06-6.46,76.17-18.85,111.02-37.75
		c5.11-2.77,10.44-5.27,14.83-9.23c0.53,0,1.07,0,1.6,0c0.08,0.21,0.12,0.43,0.1,0.65c-1.47,1.26-0.87,2.98-0.88,4.5
		c-0.07,17.98-0.08,35.95-0.1,53.93c-18.45,9.32-37.51,17.16-57.17,23.57c-22.07,7.19-44.53,12.69-67.54,15.83
		c-3.46,0.47-4.83,1.56-4.78,5.43c0.23,21.2-0.04,42.4,0.17,63.6c0.13,13.72,1.09,27.4,3.82,40.91
		c8.32,41.23,27.83,76.26,58.12,105.34c19.5,18.72,42.21,32.34,67.42,41.91C205.57,374.43,205.58,392.42,205.6,410.4z"/>
	<path class="st1" d="M205.6,410.4c-0.02-17.98-0.03-35.97-0.05-53.95c0.06-0.15,0.11-0.29,0.16-0.44c0.52-0.06,1.09-0.02,1.56-0.2
		c41.32-15.85,73.85-42.54,97.48-79.87c21.01-33.18,30.41-69.73,30.35-108.86c-0.04-20.67-0.14-41.33,0.11-62
		c0.05-4.15-1.31-5.36-5.18-5.9c-31.22-4.39-61.4-12.75-90.75-24.22c-11.4-4.46-22.37-9.87-33.57-14.77l-0.19-0.3
		c0.03-17.98,0.04-35.95,0.1-53.93c0.01-1.52-0.59-3.23,0.88-4.5c53.97,32.63,112.5,49.44,175.53,50.52
		c3.49,0.06,4.42,0.93,4.41,4.47c-0.14,37.85-0.04,75.7-0.13,113.55c-0.02,7.45-0.26,14.93-0.92,22.35
		c-3.33,37.29-14.25,72.19-33.4,104.43c-28.79,48.47-69.14,83.59-121.37,104.93c-7.71,3.15-15.62,5.81-23.43,8.69
		C206.67,410.4,206.13,410.4,205.6,410.4z"/>
	<path class="st2" d="M205.55,356.45c-25.21-9.57-47.91-23.19-67.42-41.91c-30.29-29.07-49.8-64.11-58.12-105.34
		c-2.73-13.51-3.69-27.19-3.82-40.91c-0.2-21.2,0.07-42.4-0.17-63.6c-0.04-3.87,1.33-4.96,4.78-5.43
		c23.01-3.14,45.47-8.64,67.54-15.83c19.65-6.41,38.72-14.24,57.17-23.57c0,0,0.19,0.3,0.19,0.31c-0.05,24.14-0.11,48.28-0.16,72.42
		c-5.41,10.81-11.08,21.5-16.11,32.49c-1.95,4.25-4.65,5.66-8.96,6.19c-11.7,1.44-23.35,3.3-35.05,5c0.13,1.82,1.48,2.42,2.37,3.3
		c6.63,6.56,12.87,13.61,20.1,19.43c6.36,5.11,7.2,10.51,5.45,17.94c-2.37,10.05-3.65,20.37-5.5,31.19c2.76-1.4,4.98-2.53,7.19-3.65
		c10.2-5.15,20.03-11,30.48-15.65c0.03,13.86,0.06,27.72,0.08,41.59c0.04,28.52,0.08,57.05,0.11,85.57
		C205.66,356.16,205.61,356.31,205.55,356.45z"/>
	<path class="st3" d="M205.55,132.59c0.05-24.14,0.11-48.28,0.16-72.41c11.2,4.9,22.17,10.32,33.57,14.77
		c29.35,11.47,59.53,19.83,90.75,24.22c3.87,0.54,5.23,1.75,5.18,5.9c-0.25,20.66-0.14,41.33-0.11,62
		c0.07,39.13-9.34,75.68-30.35,108.86c-23.64,37.33-56.16,64.02-97.48,79.87c-0.48,0.18-1.04,0.14-1.56,0.2
		c-0.04-28.52-0.07-57.05-0.11-85.57c-0.02-13.86-0.06-27.72-0.08-41.59l0.12-0.28c12.37,6.42,24.74,12.83,37.45,19.42
		c-0.09-1.17-0.09-1.93-0.22-2.68c-2.04-12.05-4.01-24.11-6.24-36.12c-0.43-2.32,0.12-3.64,1.71-5.17
		c8.44-8.12,16.79-16.34,25.13-24.58c0.87-0.86,2.33-1.42,2.13-3.18c-10.15-1.45-20.22-3.37-30.38-4.19
		c-7.77-0.63-13.21-3.07-15.48-11.1c-0.96-3.4-2.99-6.51-4.66-9.69c-3.2-6.08-5.68-12.53-9.47-18.31
		C205.62,132.98,205.55,132.59,205.55,132.59z"/>
	<rect x="205.62" y="132.98" class="st3" width="70.24" height="135.16"/>
	<rect x="135.27" y="132.98" class="st2" width="70.24" height="135.16"/>
</g>
</svg>
